<svg xmlns="http://www.w3.org/2000/svg" viewBox="0 0 32 32" width="32" height="32">
    <rect width="32" height="32" rx="7" fill="#27694a"/>
    <g transform="translate(6.971,8.000) scale(0.01700,-0.01700) translate(-69.000,-830.000)" fill="#e0e0e0">
        <path d="M442 -111Q354 -111 303.0 -62.5Q252 -14 260 67L275 219Q279 260 261.0 281.0Q243 302 199 302H69V417H199Q243 417 261.0 438.0Q279 459 275 499L260 656Q252 735 303.0 782.5Q354 830 442 830H511V715H460Q423 715 403.0 696.5Q383 678 385 644L400 488Q405 437 373.5 403.5Q342 370 280 362Q342 353 373.5 318.0Q405 283 400 231L385 75Q382 42 402.5 23.5Q423 5 460 5H511V-111ZM689 -111V5H740Q777 5 798.0 23.5Q819 42 815 75L795 231Q789 282 819.0 317.5Q849 353 903 362Q849 371 819.0 404.0Q789 437 795 488L815 644Q819 678 798.0 696.5Q777 715 740 715H689V830H758Q816 830 859.5 808.5Q903 787 924.5 748.0Q946 709 940 656L920 499Q910 417 997 417H1131V302H997Q910 302 920 219L940 67Q946 13 924.5 -27.0Q903 -67 860.0 -89.0Q817 -111 758 -111Z"/>
    </g>
</svg>
